<svg xmlns="http://www.w3.org/2000/svg" viewBox="0 0 28 28" id="Medical"><path style="line-height:normal;text-indent:0;text-align:start;text-decoration-line:none;text-decoration-style:solid;text-decoration-color:#000;text-transform:none;block-progression:tb;isolation:auto;mix-blend-mode:normal" d="M14 0C6.274 0 0 6.274 0 14s6.274 14 14 14 14-6.274 14-14S21.726 0 14 0zm0 1c7.186 0 13 5.814 13 13s-5.814 13-13 13S1 21.186 1 14 6.814 1 14 1zm-1.55 5.45c-.412 0-.804.157-1.054.448-.249.292-.345.668-.345 1.051v.239l-.215-.149a.5.5 0 0 0-.03-.02c-.693-.415-1.65-.254-2.085.473l-1.787 2.68a.5.5 0 0 0-.014.02c-.416.693-.296 1.59.328 2.058a.5.5 0 0 0 .018.012l.982.675-1.057.684c-.727.436-.886 1.393-.47 2.086a.5.5 0 0 0 .02.03l1.878 2.67c.462.768 1.462.945 2.129.445l-.041.029.242-.147v.317c0 .383.096.76.346 1.05.25.292.643.45 1.055.45h3.298c.412 0 .806-.158 1.055-.45.25-.29.346-.669.346-1.052v-.317l.242.147c.693.416 1.65.254 2.086-.473l1.787-2.68a.5.5 0 0 0 .014-.019c.416-.693.296-1.59-.328-2.059a.5.5 0 0 0-.03-.017l-1.049-.682 1.036-.672c.727-.436.888-1.392.472-2.086a.5.5 0 0 0-.013-.02L19.48 8.493h-.003c-.462-.768-1.461-.943-2.127-.443l.04-.03-.242.147v-.217c0-.383-.096-.76-.345-1.05-.25-.292-.642-.45-1.053-.45h-3.3zm0 1h3.3c.189 0 .246.04.297.099.05.059.101.184.101.4v1.1a.5.5 0 0 0 .76.43l1-.6a.5.5 0 0 0 .043-.03c.134-.1.532-.074.67.157a.5.5 0 0 0 .012.021l1.787 2.68c.184.307.144.55-.129.713a.5.5 0 0 0-.012.012l-1.699 1.1a.5.5 0 0 0 0 .84l1.67 1.077c.176.132.254.435.072.74l-1.787 2.682a.5.5 0 0 0-.014.022c-.163.273-.406.31-.712.127l-1-.6a.5.5 0 0 0-.758.43v1.199c0 .216-.055.341-.106.4-.05.06-.108.1-.297.1h-3.296c-.19 0-.247-.04-.297-.1-.05-.059-.106-.184-.106-.4v-1.2a.5.5 0 0 0-.756-.43l-1 .6a.5.5 0 0 0-.045.03c-.133.1-.53.075-.67-.156a.5.5 0 0 0-.021-.032l-1.879-2.668v-.004c-.182-.305-.143-.547.129-.71a.5.5 0 0 0 .016-.01l1.697-1.1a.5.5 0 0 0 .014-.832L7.85 12.45c-.176-.131-.255-.434-.073-.74v-.002l1.787-2.68a.5.5 0 0 0 .016-.02c.163-.271.404-.308.71-.126h.001l.97.68a.5.5 0 0 0 .788-.413V7.95c0-.216.055-.341.105-.4.05-.059.106-.1.295-.1zm1.6 1c-.3 0-.5.2-.5.5v.833l-.1-.033c-.3-.1-.5.1-.6.3-.1.3-.002.498.298.598l.4.118v1.078l-.9.205h-.1c-.4.2-.599.7-.599 1.1.1.5.4.9.9 1l.7.146v.875l-1.2.08h-.101c-.4.2-.6.6-.6 1s.2.8.6 1h.102l1.199.291v1.408c0 .3.2.5.5.5s.5-.2.5-.5v-1.166l1.1.266h.099c.2 0 .4-.1.5-.4.1-.2-.099-.4-.299-.5l-1.4-.35v-.969l1.199-.08h.102c.4-.2.7-.602.6-1.102-.1-.5-.401-.9-.901-1l-1-.16v-1.002l.6-.136h.099c.3-.2.602-.5.602-.9s-.2-.8-.5-1c0-.1-.102-.1-.102-.1l-.7-.233V8.95c0-.3-.297-.5-.497-.5zm.5 2.61.302.088c.1.1.1.202.1.202 0 .1 0 .099-.1.199l-.301.068v-.556zm-1 1.653v.617l-.5-.08c-.2 0-.198-.201-.198-.201s0-.1.1-.2l.599-.136zm1 1.789.7.146c.2 0 .201.202.201.202s0 .099-.1.199l-.8.053v-.6zm-1 1.394v.653l-.802-.2c-.1-.1-.1-.2-.1-.2 0-.1 0-.1.1-.2l.803-.053z" color="#000" font-family="sans-serif" font-weight="400" overflow="visible" fill="#67cccc" class="color000000 svgShape"></path></svg>